<svg xmlns="http://www.w3.org/2000/svg" width="20" height="20" viewBox="0 0 20 20" fill="none">
  <path d="M12.5988 14.8755L18.3088 10.7755C18.443 10.6958 18.5541 10.5825 18.6313 10.4469C18.7085 10.3112 18.7491 10.1578 18.7491 10.0018C18.7491 9.84567 18.7085 9.69228 18.6313 9.55662C18.5541 9.42097 18.443 9.30772 18.3088 9.228L12.5988 5.1255C12.4627 5.04544 12.3078 5.00282 12.1499 5.00197C11.992 5.00111 11.8366 5.04205 11.6997 5.12063C11.5627 5.19921 11.4489 5.31263 11.37 5.44938C11.291 5.58613 11.2496 5.74134 11.25 5.89925V7.5005C9.37502 7.5005 3.75002 7.5005 2.50002 17.5005C5.62502 11.8755 11.25 12.5005 11.25 12.5005V14.1018C11.25 14.8018 12.0075 15.2243 12.5988 14.8768V14.8755Z" fill="#1C2C57"/>
</svg>