<svg xmlns="http://www.w3.org/2000/svg" width="23" height="23" viewBox="0 0 23 23" fill="none">
<path fill-rule="evenodd" clip-rule="evenodd" d="M8 10.0182C8 7.25 10.0204 5 12.5061 5C14.9918 5 17 7.25 17 10.0182V10.0318C17 10.5636 14.9796 11 12.5061 11C10.0204 11 8.01224 10.5636 8.01224 10.0318C8 10.0182 8 10.0182 8 10.0182Z" fill="#1C2C57"/>
<path fill-rule="evenodd" clip-rule="evenodd" d="M1 16.0182C1 13.25 3.02041 11 5.50612 11C7.99184 11 10 13.25 10 16.0182V16.0318C10 16.5636 7.97959 17 5.50612 17C3.02041 17 1.01224 16.5636 1.01224 16.0318C1 16.0182 1 16.0182 1 16.0182Z" fill="#1C2C57"/>
<path fill-rule="evenodd" clip-rule="evenodd" d="M12 17.0182C12 14.25 14.0204 12 16.5061 12C18.9918 12 21 14.25 21 17.0182V17.0318C21 17.5636 18.9796 18 16.5061 18C14.0204 18 12.0122 17.5636 12.0122 17.0318C12 17.0182 12 17.0182 12 17.0182Z" fill="#1C2C57"/>
</svg>